<svg class="icon" style="vertical-align: middle;fill: currentColor;overflow: hidden;"
     viewBox="0 0 1024 1024" version="1.1" xmlns="http://www.w3.org/2000/svg" p-id="2806">
    <path
        d="M512 950.857143c112.128 0 215.808-0.365714 300.141714-47.177143C940.507429 832.365714 1024 681.618286 1024 482.889143 1024 224.438857 794.770286 14.884571 512 14.884571S0 224.438857 0 482.889143C0 674.377143 77.531429 830.902857 198.070857 903.68 284.745143 955.977143 393.691429 950.857143 512 950.857143z"
        fill="#3591da"></path>
    <path
        d="M512 950.857143c222.171429 0 402.285714-57.234286 402.285714-329.142857 0-181.76-180.114286-329.142857-402.285714-329.142857S109.714286 439.954286 109.714286 621.714286c0 271.908571 180.114286 329.142857 402.285714 329.142857z"
        fill="#FFFFFF"></path>
    <path
        d="M146.285714 877.714286m54.857143 0l621.714286 0q54.857143 0 54.857143 54.857143l0 0q0 54.857143-54.857143 54.857142l-621.714286 0q-54.857143 0-54.857143-54.857142l0 0q0-54.857143 54.857143-54.857143Z"
        fill="#cf2513"></path>
    <path d="M253.696 309.540571a138.678857 131.401143 90 1 0 262.802286 0 138.678857 131.401143 90 1 0-262.802286 0Z"
          fill="#FFFFFF"></path>
    <path
        d="M516.461714 309.540571a138.678857 131.401143 90 1 0 262.802286 0 138.678857 131.401143 90 1 0-262.802286 0Z"
        fill="#FFFFFF"></path>
    <path
        d="M276.662857 682.569143a18.285714 18.285714 0 1 1 31.817143-18.066286c28.928 50.944 95.963429 77.421714 203.52 77.421714 107.556571 0 174.592-26.477714 203.52-77.421714a18.285714 18.285714 0 1 1 31.817143 18.066286c-36.717714 64.621714-115.968 95.926857-235.337143 95.926857s-198.619429-31.305143-235.337143-95.926857z"
        fill="#656565"></path>
    <path d="M493.714286 500.224h36.571428v242.651429h-36.571428z" fill="#656565"></path>
    <path d="M512 512m-36.571429 0a36.571429 36.571429 0 1 0 73.142858 0 36.571429 36.571429 0 1 0-73.142858 0Z"
          fill="#c92912"></path>
    <path
        d="M438.857143 292.571429m-36.571429 0a36.571429 36.571429 0 1 0 73.142857 0 36.571429 36.571429 0 1 0-73.142857 0Z"
        fill="#484848"></path>
    <path d="M557.531429 290.304a36.571429 36.571429 0 1 0 73.142857 0 36.571429 36.571429 0 1 0-73.142857 0Z"
          fill="#484848"></path>
    <path
        d="M116.662857 518.290286a18.285714 18.285714 0 1 1 5.668572-36.132572l220.781714 34.669715a18.285714 18.285714 0 1 1-5.668572 36.132571l-220.781714-34.669714zM73.142857 605.147429a18.285714 18.285714 0 1 1 0-36.571429h270.811429a18.285714 18.285714 0 1 1 0 36.571429H73.142857zM112.347429 691.638857a18.285714 18.285714 0 1 1-5.266286-36.205714l239.835428-34.669714a18.285714 18.285714 0 1 1 5.229715 36.205714l-239.798857 34.669714zM928.256 518.290286a18.285714 18.285714 0 1 0-5.668571-36.132572l-220.781715 34.669715a18.285714 18.285714 0 1 0 5.668572 36.132571l220.781714-34.669714zM965.668571 605.147429a18.285714 18.285714 0 1 0 0-36.571429H694.857143a18.285714 18.285714 0 1 0 0 36.571429h270.811428zM932.059429 691.638857a18.285714 18.285714 0 1 0 5.229714-36.205714l-239.798857-34.669714a18.285714 18.285714 0 1 0-5.266286 36.205714l239.835429 34.669714z"
        fill="#878787"></path>
</svg>
