<svg class="icon" style="vertical-align: middle;fill: currentColor;overflow: hidden;"
     viewBox="0 0 1024 1024" version="1.1" xmlns="http://www.w3.org/2000/svg">
    <path
        d="M986.547725 296.877788a36.538805 36.538805 0 0 0 36.538805-36.538805V109.616414a109.616414 109.616414 0 0 0-109.616414-109.616414H109.616414a109.616414 109.616414 0 0 0-109.616414 109.616414v803.853702a109.616414 109.616414 0 0 0 109.616414 109.616414h249.011954a36.538805 36.538805 0 0 0 10.413559-1.644246 36.538805 36.538805 0 0 0 34.346476-36.538805l3.653881-263.444781a36.538805 36.538805 0 0 0-11.509724-27.22141c-66.683318-62.298662-101.212489-130.443533-101.212489-200.963425a217.405888 217.405888 0 0 1 96.097057-179.953613v123.501159a36.538805 36.538805 0 0 0 36.538804 36.538805h169.174666a36.538805 36.538805 0 0 0 36.538804-36.538805v-124.231935A217.405888 217.405888 0 0 1 728.766459 493.273863c0 71.433363-33.981088 139.578234-101.212489 202.607671a36.538805 36.538805 0 0 0-11.509724 27.22141l3.653881 263.444781a36.538805 36.538805 0 0 0 31.057984 35.442641 36.538805 36.538805 0 0 0 11.509723 2.009634H913.470116a109.616414 109.616414 0 0 0 109.616414-109.616414V478.110259a36.538805 36.538805 0 0 0-73.077609 0V913.470116a36.538805 36.538805 0 0 1-36.538805 36.538805H692.227654l-2.923104-213.021231c73.077609-73.077609 112.539518-157.847636 112.539518-244.444603A290.666191 290.666191 0 0 0 608.371097 219.232828a36.538805 36.538805 0 0 0-48.779304 34.52917v146.155219h-96.097056v-146.155219A36.538805 36.538805 0 0 0 414.715433 219.232828a290.666191 290.666191 0 0 0-193.472971 274.041035c0 86.596967 38.913827 170.818912 112.539518 244.444603L330.858876 950.008921H109.616414a36.538805 36.538805 0 0 1-36.538805-36.538805V109.616414a36.538805 36.538805 0 0 1 36.538805-36.538805h803.853702a36.538805 36.538805 0 0 1 36.538805 36.538805v150.722569a36.538805 36.538805 0 0 0 36.538804 36.538805z"
        fill="#249ffd"></path>
    <path
        d="M584.620874 548.08207h-146.155218a36.538805 36.538805 0 0 0 0 73.077609h146.155218a36.538805 36.538805 0 0 0 0-73.077609z"
        fill="#249ffd"></path>
</svg>
